<!-- Draws the OpenPlex wordmark as outlines, so the logo needs no installed font. Outlined from Comfortaa 700, outline stroked 4% of the x-height (SIL Open Font License 1.1). -->
<svg xmlns="http://www.w3.org/2000/svg" viewBox="9.33 -144.78 887.46 189.56">
  <path fill="currentColor" stroke="currentColor" stroke-width="4.00" stroke-linejoin="round" d="M61.79 0.73Q46.98 0.73 35.64 -5.78Q24.3 -12.3 17.82 -23.7Q11.33 -35.1 11.33 -49.91Q11.33 -64.9 17.82 -76.3Q24.3 -87.7 35.64 -94.22Q46.98 -100.73 61.7 -100.73Q76.42 -100.73 87.73 -94.22Q99.04 -87.7 105.55 -76.3Q112.07 -64.9 112.07 -49.91Q112.07 -35.1 105.67 -23.67Q99.27 -12.25 87.93 -5.76Q76.6 0.73 61.79 0.73ZM61.79 -15.72Q71.3 -15.72 78.6 -20.12Q85.9 -24.53 90.02 -32.19Q94.15 -39.85 94.15 -49.91Q94.15 -59.96 90.02 -67.71Q85.9 -75.47 78.6 -79.87Q71.3 -84.28 61.79 -84.28Q52.29 -84.28 44.98 -79.87Q37.67 -75.47 33.46 -67.71Q29.25 -59.96 29.25 -49.91Q29.25 -39.85 33.46 -32.19Q37.67 -24.53 44.98 -20.12Q52.29 -15.72 61.79 -15.72ZM151.01 42.78Q146.98 42.78 144.33 40.13Q141.68 37.48 141.68 33.46V-49.91Q141.86 -64.32 148.48 -75.87Q155.1 -87.42 166.43 -94.08Q177.76 -100.73 191.9 -100.73Q206.4 -100.73 217.73 -94.06Q229.07 -87.39 235.74 -75.91Q242.41 -64.43 242.41 -49.86Q242.41 -35.47 236.26 -24.01Q230.11 -12.55 219.53 -5.91Q208.96 0.73 195.61 0.73Q184.83 0.73 175.78 -3.75Q166.73 -8.23 160.33 -15.9V33.46Q160.33 37.48 157.75 40.13Q155.18 42.78 151.01 42.78ZM191.95 -15.72Q201.28 -15.72 208.59 -20.2Q215.9 -24.68 220.2 -32.47Q224.5 -40.26 224.5 -49.94Q224.5 -59.78 220.2 -67.55Q215.9 -75.32 208.55 -79.8Q201.2 -84.28 191.93 -84.28Q182.82 -84.28 175.4 -79.76Q167.98 -75.24 163.79 -67.51Q159.6 -59.78 159.6 -49.92Q159.6 -40.22 163.78 -32.41Q167.97 -24.6 175.37 -20.16Q182.77 -15.72 191.95 -15.72ZM319.01 0.73Q303.84 0.73 292.05 -5.76Q280.26 -12.25 273.58 -23.67Q266.91 -35.1 266.91 -49.91Q266.91 -64.9 273.22 -76.33Q279.52 -87.75 290.68 -94.24Q301.83 -100.73 316.27 -100.73Q330.53 -100.73 340.77 -94.42Q351.01 -88.12 356.4 -77.06Q361.79 -66 361.79 -51.55Q361.79 -48.08 359.41 -45.8Q357.04 -43.51 353.38 -43.51H279.71V-58.14H352.83L345.34 -53.02Q345.16 -62.16 341.68 -69.38Q338.21 -76.6 331.81 -80.8Q325.41 -85.01 316.27 -85.01Q305.85 -85.01 298.45 -80.44Q291.04 -75.87 287.2 -67.92Q283.36 -59.96 283.36 -49.91Q283.36 -39.85 287.93 -31.99Q292.5 -24.13 300.55 -19.56Q308.59 -14.99 319.01 -14.99Q324.68 -14.99 330.62 -17.09Q336.56 -19.2 340.22 -21.94Q342.96 -23.95 346.16 -24.04Q349.36 -24.13 351.74 -22.12Q354.84 -19.38 355.03 -16.09Q355.21 -12.8 352.1 -10.42Q345.89 -5.48 336.65 -2.38Q327.42 0.73 319.01 0.73ZM471.85 0.18Q467.82 0.18 465.17 -2.47Q462.52 -5.12 462.52 -9.14V-54.11Q462.52 -64.53 458.68 -71.12Q454.84 -77.7 448.35 -80.9Q441.86 -84.1 433.46 -84.1Q425.78 -84.1 419.56 -80.99Q413.35 -77.88 409.69 -72.67Q406.03 -67.46 406.03 -60.69H394.52Q394.52 -72.21 400.09 -81.26Q405.67 -90.31 415.36 -95.61Q425.05 -100.91 437.11 -100.91Q449.73 -100.91 459.69 -95.52Q469.65 -90.13 475.41 -79.71Q481.17 -69.29 481.17 -54.11V-9.14Q481.17 -5.12 478.52 -2.47Q475.87 0.18 471.85 0.18ZM396.71 0.18Q392.69 0.18 390.04 -2.47Q387.39 -5.12 387.39 -9.14V-90.68Q387.39 -94.88 390.04 -97.44Q392.69 -100 396.71 -100Q400.91 -100 403.47 -97.44Q406.03 -94.88 406.03 -90.68V-9.14Q406.03 -5.12 403.47 -2.47Q400.91 0.18 396.71 0.18ZM523.22 42.78Q519.2 42.78 516.54 40.13Q513.89 37.48 513.89 33.46V-49.91Q514.08 -64.32 520.69 -75.87Q527.31 -87.42 538.64 -94.08Q549.97 -100.73 564.11 -100.73Q578.61 -100.73 589.95 -94.06Q601.28 -87.39 607.95 -75.91Q614.63 -64.43 614.63 -49.86Q614.63 -35.47 608.47 -24.01Q602.32 -12.55 591.74 -5.91Q581.17 0.73 567.82 0.73Q557.04 0.73 547.99 -3.75Q538.94 -8.23 532.54 -15.9V33.46Q532.54 37.48 529.96 40.13Q527.39 42.78 523.22 42.78ZM564.16 -15.72Q573.49 -15.72 580.8 -20.2Q588.12 -24.68 592.41 -32.47Q596.71 -40.26 596.71 -49.94Q596.71 -59.78 592.41 -67.55Q588.12 -75.32 580.76 -79.8Q573.41 -84.28 564.14 -84.28Q555.03 -84.28 547.61 -79.76Q540.19 -75.24 536 -67.51Q531.81 -59.78 531.81 -49.92Q531.81 -40.22 535.99 -32.41Q540.18 -24.6 547.58 -20.16Q554.98 -15.72 564.16 -15.72ZM668.01 0Q659.96 0 653.75 -4.39Q647.53 -8.78 644.06 -16.35Q640.59 -23.92 640.59 -33.82V-133.64Q640.59 -137.73 643.11 -140.25Q645.64 -142.78 649.73 -142.78Q653.82 -142.78 656.34 -140.25Q658.87 -137.73 658.87 -133.64V-33.82Q658.87 -27.06 661.45 -22.67Q664.03 -18.28 668.01 -18.28H672.58Q676.32 -18.28 678.56 -15.76Q680.8 -13.23 680.8 -9.14Q680.8 -5.05 677.35 -2.53Q673.9 0 668.37 0ZM747.9 0.73Q732.72 0.73 720.93 -5.76Q709.14 -12.25 702.47 -23.67Q695.8 -35.1 695.8 -49.91Q695.8 -64.9 702.1 -76.33Q708.41 -87.75 719.56 -94.24Q730.71 -100.73 745.16 -100.73Q759.41 -100.73 769.65 -94.42Q779.89 -88.12 785.28 -77.06Q790.68 -66 790.68 -51.55Q790.68 -48.08 788.3 -45.8Q785.92 -43.51 782.27 -43.51H708.59V-58.14H781.72L774.22 -53.02Q774.04 -62.16 770.57 -69.38Q767.09 -76.6 760.69 -80.8Q754.3 -85.01 745.16 -85.01Q734.73 -85.01 727.33 -80.44Q719.93 -75.87 716.09 -67.92Q712.25 -59.96 712.25 -49.91Q712.25 -39.85 716.82 -31.99Q721.39 -24.13 729.43 -19.56Q737.48 -14.99 747.9 -14.99Q753.56 -14.99 759.51 -17.09Q765.45 -19.2 769.1 -21.94Q771.85 -23.95 775.05 -24.04Q778.24 -24.13 780.62 -22.12Q783.73 -19.38 783.91 -16.09Q784.1 -12.8 780.99 -10.42Q774.77 -5.48 765.54 -2.38Q756.31 0.73 747.9 0.73ZM886.47 0Q884.64 0 883 -0.55Q881.35 -1.1 879.89 -2.93L847.9 -41.32L841.32 -47.9L809.51 -85.56Q807.13 -88.48 806.95 -91.86Q806.76 -95.25 808.78 -97.62Q810.79 -100 814.81 -100Q819.2 -100 821.76 -96.89L853.02 -59.6L857.77 -55.21L892.14 -14.08Q894.88 -10.79 894.79 -7.59Q894.7 -4.39 892.41 -2.19Q890.13 0 886.47 0ZM816.64 0Q812.98 0 810.88 -2.29Q808.78 -4.57 808.78 -7.86Q808.78 -11.15 811.33 -14.44L842.41 -53.38L852.29 -39.49L823.22 -2.93Q820.48 0 816.64 0ZM861.79 -46.98 849.18 -57.77 878.61 -96.89Q880.07 -98.72 881.72 -99.36Q883.36 -100 885.37 -100Q889.4 -100 891.41 -97.53Q893.42 -95.06 893.33 -91.59Q893.24 -88.12 890.68 -84.83Z"/>
</svg>
