<svg xmlns="http://www.w3.org/2000/svg" viewBox="0 0 512 512"><ellipse cx="49.5" cy="258.3" fill="#f8b5cb" fill-rule="evenodd" rx="49.5" ry="49.9"/><path fill="#a2a2a2" fill-rule="evenodd" d="M135.9 220.2c7.8 0 14.2 6.3 14.2 14s-6.4 14-14.2 14s-14.2-6.3-14.2-14s6.4-14 14.2-14m0 49c7.8 0 14.2 6.3 14.2 14s-6.4 14-14.2 14s-14.2-6.3-14.2-14s6.4-14 14.2-14m64 0c7.8 0 14.2 6.3 14.2 14s-6.4 14-14.2 14s-14.2-6.3-14.2-14s6.4-14 14.2-14m.2-49c7.8 0 14.2 6.3 14.2 14s-6.4 14-14.2 14s-14.2-6.3-14.2-14s6.4-14 14.2-14"/><path fill="#8d8d8d" fill-rule="evenodd" d="M325 208.8c27.4 0 49.6 22.4 49.6 50s-22.2 50-49.6 50s-49.6-22.4-49.6-50s22.2-50 49.6-50m106.6 0c27.4 0 49.6 22.4 49.6 50s-22.2 50-49.6 50s-49.6-22.4-49.6-50s22.2-50 49.6-50"/><path fill="#303030" fill-rule="evenodd" d="M273.3 173.5h-28.8v165h28.8v-11.9h-17v-141h17zm209.9 0H512v165h-28.8v-11.9h17v-141h-17z"/></svg>
